<svg width="123" height="123" viewBox="0 0 123 123" fill="none" xmlns="http://www.w3.org/2000/svg">
<path d="M92.25 11.5312H30.75C25.6529 11.5312 20.7645 13.5561 17.1603 17.1603C13.5561 20.7645 11.5313 25.6529 11.5312 30.75V92.25C11.5312 97.3471 13.5561 102.235 17.1603 105.84C20.7645 109.444 25.6529 111.469 30.75 111.469H61.5C62.5194 111.469 63.4971 111.064 64.2179 110.343C64.9388 109.622 65.3438 108.644 65.3438 107.625V76.875C65.3438 75.8556 64.9388 74.8779 64.2179 74.1571C63.4971 73.4362 62.5194 73.0312 61.5 73.0312H57.6562V65.3438H61.5C62.5194 65.3438 63.4971 64.9388 64.2179 64.2179C64.9388 63.4971 65.3438 62.5194 65.3438 61.5V48.0469C65.3438 45.4983 66.3562 43.0541 68.1583 41.252C69.9604 39.4499 72.4046 38.4375 74.9531 38.4375H84.5625V46.125H80.7188C78.6799 46.125 76.7246 46.9349 75.2829 48.3766C73.8412 49.8183 73.0312 51.7736 73.0312 53.8125V61.5C73.0312 62.5194 73.4362 63.4971 74.1571 64.2179C74.8779 64.9388 75.8556 65.3438 76.875 65.3438H83.4862L81.5644 73.0312H76.875C75.8556 73.0312 74.8779 73.4362 74.1571 74.1571C73.4362 74.8779 73.0312 75.8556 73.0312 76.875V92.25C73.0312 93.2694 73.4362 94.2471 74.1571 94.9679C74.8779 95.6888 75.8556 96.0938 76.875 96.0938C77.8944 96.0938 78.8721 95.6888 79.5929 94.9679C80.3138 94.2471 80.7188 93.2694 80.7188 92.25V80.7188H84.5625C85.4405 80.7443 86.3009 80.4684 87.0002 79.9369C87.6996 79.4054 88.1958 78.6503 88.4062 77.7975L92.25 62.4225C92.394 61.8552 92.4065 61.2625 92.2866 60.6896C92.1667 60.1168 91.9175 59.5788 91.5581 59.1169C91.1843 58.6431 90.7042 58.2639 90.1566 58.0102C89.609 57.7564 89.0094 57.6352 88.4062 57.6562H80.7188V53.8125H88.4062C89.4257 53.8125 90.4034 53.4075 91.1242 52.6867C91.845 51.9658 92.25 50.9882 92.25 49.9688V34.5938C92.25 33.5743 91.845 32.5967 91.1242 31.8758C90.4034 31.155 89.4257 30.75 88.4062 30.75H74.9531C70.3688 30.7602 65.9752 32.5858 62.7336 35.8274C59.492 39.0689 57.6664 43.4626 57.6562 48.0469V57.6562H53.8125C52.7931 57.6562 51.8154 58.0612 51.0946 58.7821C50.3737 59.5029 49.9688 60.4806 49.9688 61.5V76.875C49.9688 77.8944 50.3737 78.8721 51.0946 79.5929C51.8154 80.3138 52.7931 80.7188 53.8125 80.7188H57.6562V103.781H30.75C27.6917 103.781 24.7587 102.566 22.5962 100.404C20.4336 98.2413 19.2188 95.3083 19.2188 92.25V30.75C19.2188 27.6917 20.4336 24.7587 22.5962 22.5962C24.7587 20.4336 27.6917 19.2188 30.75 19.2188H92.25C95.3083 19.2188 98.2413 20.4336 100.404 22.5962C102.566 24.7587 103.781 27.6917 103.781 30.75V92.25C103.781 95.3083 102.566 98.2413 100.404 100.404C98.2413 102.566 95.3083 103.781 92.25 103.781H76.875C75.8556 103.781 74.8779 104.186 74.1571 104.907C73.4362 105.628 73.0312 106.606 73.0312 107.625C73.0312 108.644 73.4362 109.622 74.1571 110.343C74.8779 111.064 75.8556 111.469 76.875 111.469H92.25C97.3471 111.469 102.235 109.444 105.84 105.84C109.444 102.235 111.469 97.3471 111.469 92.25V30.75C111.469 25.6529 109.444 20.7645 105.84 17.1603C102.235 13.5561 97.3471 11.5313 92.25 11.5312Z" fill="#3C2208"/>
</svg>
