<svg width="120" height="120" viewBox="0 0 120 120" fill="none" xmlns="http://www.w3.org/2000/svg">
<path d="M86.7 27.3C85.5133 27.3 84.3533 27.6519 83.3666 28.3112C82.3799 28.9705 81.6108 29.9075 81.1567 31.0039C80.7026 32.1003 80.5838 33.3067 80.8153 34.4705C81.0468 35.6344 81.6182 36.7035 82.4574 37.5426C83.2965 38.3818 84.3656 38.9532 85.5295 39.1847C86.6933 39.4162 87.8997 39.2974 88.9961 38.8433C90.0925 38.3892 91.0295 37.6201 91.6888 36.6334C92.3481 35.6467 92.7 34.4867 92.7 33.3C92.7 31.7087 92.0679 30.1826 90.9426 29.0574C89.8174 27.9321 88.2913 27.3 86.7 27.3ZM109.7 39.4C109.603 35.2515 108.826 31.147 107.4 27.25C106.129 23.9157 104.15 20.8964 101.6 18.4C99.1241 15.8371 96.0978 13.8709 92.75 12.65C88.8633 11.1808 84.7542 10.386 80.6 10.3C75.3 10 73.6 10 60 10C46.4 10 44.7 10 39.4 10.3C35.2458 10.386 31.1367 11.1808 27.25 12.65C23.9084 13.8832 20.8847 15.8478 18.4 18.4C15.8371 20.8759 13.8709 23.9022 12.65 27.25C11.1808 31.1367 10.386 35.2458 10.3 39.4C10 44.7 10 46.4 10 60C10 73.6 10 75.3 10.3 80.6C10.386 84.7542 11.1808 88.8633 12.65 92.75C13.8709 96.0978 15.8371 99.1241 18.4 101.6C20.8847 104.152 23.9084 106.117 27.25 107.35C31.1367 108.819 35.2458 109.614 39.4 109.7C44.7 110 46.4 110 60 110C73.6 110 75.3 110 80.6 109.7C84.7542 109.614 88.8633 108.819 92.75 107.35C96.0978 106.129 99.1241 104.163 101.6 101.6C104.161 99.1129 106.142 96.091 107.4 92.75C108.826 88.853 109.603 84.7485 109.7 80.6C109.7 75.3 110 73.6 110 60C110 46.4 110 44.7 109.7 39.4ZM100.7 80C100.664 83.1739 100.089 86.3185 99 89.3C98.2017 91.476 96.9194 93.4421 95.25 95.05C93.6282 96.7025 91.6661 97.9822 89.5 98.8C86.5185 99.8888 83.3739 100.464 80.2 100.5C75.2 100.75 73.35 100.8 60.2 100.8C47.05 100.8 45.2 100.8 40.2 100.5C36.9045 100.562 33.623 100.054 30.5 99C28.4289 98.1404 26.5568 96.8639 25 95.25C23.3404 93.6437 22.0742 91.676 21.3 89.5C20.0793 86.4758 19.4022 83.2597 19.3 80C19.3 75 19 73.15 19 60C19 46.85 19 45 19.3 40C19.3224 36.7553 19.9148 33.5397 21.05 30.5C21.9302 28.3896 23.2813 26.5083 25 25C26.5191 23.2808 28.3964 21.9155 30.5 21C33.5478 19.9002 36.76 19.3254 40 19.3C45 19.3 46.85 19 60 19C73.15 19 75 19 80 19.3C83.1739 19.3364 86.3185 19.9112 89.3 21C91.5722 21.8433 93.6115 23.2142 95.25 25C96.8885 26.5359 98.1688 28.4137 99 30.5C100.111 33.5447 100.686 36.7589 100.7 40C100.95 45 101 46.85 101 60C101 73.15 100.95 75 100.7 80ZM60 34.35C54.9291 34.3599 49.9748 35.8726 45.7633 38.6971C41.5517 41.5216 38.2719 45.531 36.3382 50.2188C34.4044 54.9066 33.9036 60.0623 34.899 65.0346C35.8943 70.007 38.3412 74.5727 41.9304 78.1549C45.5196 81.7371 50.0901 84.1751 55.0643 85.1607C60.0385 86.1464 65.1933 85.6355 69.8773 83.6927C74.5614 81.7498 78.5644 78.4622 81.3806 74.2452C84.1969 70.0281 85.7 65.071 85.7 60C85.7066 56.6255 85.046 53.283 83.7562 50.1648C82.4664 47.0465 80.5728 44.214 78.1843 41.8303C75.7959 39.4465 72.9597 37.5584 69.839 36.2746C66.7182 34.9909 63.3745 34.3368 60 34.35ZM60 76.65C56.7069 76.65 53.4878 75.6735 50.7498 73.844C48.0117 72.0144 45.8776 69.4141 44.6174 66.3717C43.3572 63.3293 43.0275 59.9815 43.6699 56.7517C44.3124 53.522 45.8981 50.5552 48.2267 48.2267C50.5552 45.8981 53.522 44.3124 56.7517 43.6699C59.9815 43.0275 63.3293 43.3572 66.3717 44.6174C69.4141 45.8776 72.0144 48.0117 73.844 50.7498C75.6735 53.4878 76.65 56.7069 76.65 60C76.65 62.1865 76.2193 64.3516 75.3826 66.3717C74.5459 68.3918 73.3194 70.2272 71.7733 71.7733C70.2272 73.3194 68.3918 74.5459 66.3717 75.3826C64.3516 76.2193 62.1865 76.65 60 76.65Z" fill="#3C2208"/>
</svg>
