<svg width="112" height="108" viewBox="0 0 112 108" fill="none" xmlns="http://www.w3.org/2000/svg">
<path d="M95.5782 69.6902L87.8782 62.2652C85.5829 60.0696 82.4848 58.8318 79.2518 58.8185C76.0188 58.8053 72.9098 60.0177 70.5952 62.1943C69.3602 63.392 67.7309 64.1373 65.9876 64.3017C64.2443 64.4662 62.4961 64.0396 61.0437 63.0954C55.3114 59.4064 50.3869 54.667 46.5502 49.1466C45.5883 47.7305 45.162 46.0379 45.343 44.3541C45.5241 42.6703 46.3015 41.0981 47.5442 39.9024C49.7811 37.6684 51.0222 34.6788 51.0019 31.5736C50.9816 28.4683 49.7016 25.494 47.4357 23.2873L39.7357 15.8623C37.4305 13.647 34.3086 12.4031 31.054 12.4031C27.7994 12.4031 24.6775 13.647 22.3722 15.8623L20.1567 18.0021C8.60674 29.1396 9.47124 52.5553 33.5022 75.7146C47.9922 89.6904 62.5767 95.5427 74.4032 95.5427C77.8846 95.6545 81.3542 95.097 84.6098 93.9028C87.8655 92.7086 90.8421 90.9015 93.3662 88.5868L95.5852 86.4471C97.8868 84.2231 99.1788 81.2092 99.1775 78.0672C99.1762 74.9253 97.8817 71.9124 95.5782 69.6902ZM90.6292 81.6748L88.4102 83.8146C79.3102 92.5896 59.2237 90.9864 38.4442 70.9457C17.6647 50.9049 15.9987 31.5223 25.0987 22.7473L27.3002 20.6109C28.2915 19.6586 29.6337 19.1238 31.033 19.1238C32.4323 19.1238 33.7745 19.6586 34.7657 20.6109L42.4657 28.0359C43.439 28.9791 43.9914 30.2517 44.0051 31.5821C44.0188 32.9126 43.4928 34.1955 42.5392 35.1572C40.1742 37.4523 38.6989 40.4614 38.3606 43.6804C38.0222 46.8994 38.8414 50.1328 40.6807 52.8388C45.0402 59.1295 50.6461 64.5272 57.1762 68.7216C59.9741 70.4955 63.3184 71.29 66.6506 70.9725C69.9828 70.6549 73.1012 69.2444 75.4847 66.9767C76.4801 66.0463 77.8143 65.5297 79.2005 65.5379C80.5868 65.5461 81.9143 66.0785 82.8977 67.0206L90.5977 74.4456C91.094 74.9172 91.4887 75.4788 91.759 76.098C92.0293 76.7173 92.17 77.382 92.1729 78.0539C92.1759 78.7258 92.041 79.3916 91.776 80.013C91.5111 80.6344 91.1214 81.1992 90.6292 81.6748Z" fill="#3C2208"/>
</svg>
